<?xml version="1.0" standalone="no"?>
<!DOCTYPE svg PUBLIC "-//W3C//DTD SVG 20010904//EN"
 "http://www.w3.org/TR/2001/REC-SVG-20010904/DTD/svg10.dtd">
<svg version="1.0" xmlns="http://www.w3.org/2000/svg"
 width="3840.000000pt" height="2160.000000pt" viewBox="0 0 3840.000000 2160.000000"
 preserveAspectRatio="xMidYMid meet">

<g transform="translate(0.000000,2160.000000) scale(0.100000,-0.100000)"
fill="#000000" stroke="none">
<path d="M0 10800 l0 -10800 19200 0 19200 0 0 10800 0 10800 -19200 0 -19200
0 0 -10800z m19264 7370 c-15 -73 -38 -283 -33 -299 2 -5 55 29 118 75 153
114 382 247 397 231 2 -2 -14 -45 -36 -96 -32 -77 -73 -191 -104 -297 -8 -25
-15 -25 174 12 102 21 274 67 337 91 8 3 13 -2 13 -12 0 -32 -53 -171 -104
-270 -28 -55 -52 -103 -54 -108 -7 -15 195 22 319 58 43 12 79 19 79 14 0 -12
-57 -154 -82 -202 -11 -23 -47 -83 -80 -133 l-59 -92 60 -83 c59 -83 171 -285
171 -309 0 -7 -20 6 -45 29 -40 37 -175 131 -189 131 -2 0 6 -27 19 -59 20
-51 65 -222 65 -246 0 -4 -12 10 -26 31 -55 82 -232 280 -241 270 -3 -2 7 -35
20 -73 32 -88 59 -222 55 -270 -3 -38 -3 -38 -51 54 -57 109 -201 330 -278
426 l-54 68 -60 -7 c-33 -3 -239 -7 -458 -7 l-398 -2 7 -45 c3 -25 10 -49 15
-54 10 -11 396 -24 722 -25 l208 -1 25 -25 25 -25 -3 -205 c-3 -189 -4 -205
-22 -218 -30 -22 -341 -30 -666 -18 -386 15 -429 19 -457 47 -19 19 -22 20
-26 6 -3 -10 -5 0 -6 21 -2 63 -38 225 -71 316 -16 46 -30 85 -30 88 0 17 -26
-19 -55 -77 -51 -102 -74 -165 -95 -260 -18 -84 -18 -85 -31 -55 -9 21 -14 78
-14 182 0 134 -2 150 -16 143 -28 -15 -149 -150 -180 -201 -35 -56 -42 -61
-33 -21 27 108 160 382 241 495 l34 48 -11 117 c-10 114 -37 294 -64 420 -9
45 -10 62 -1 62 14 0 114 -87 182 -158 35 -38 54 -51 57 -41 2 8 14 57 27 109
42 180 126 398 137 359 14 -45 88 -222 125 -295 l43 -85 59 83 c98 138 207
268 309 367 53 52 98 92 100 90 2 -2 -2 -33 -10 -69z m834 -1720 c43 -46 68
-210 52 -332 -9 -67 -22 -106 -68 -202 -31 -65 -67 -127 -80 -137 -23 -17 -23
-20 -13 -94 6 -42 11 -124 11 -183 l0 -107 -19 30 c-10 17 -27 38 -38 48 -20
17 -20 17 -26 -68 -2 -48 -7 -88 -9 -90 -2 -2 -31 6 -63 20 -33 13 -73 25 -89
27 -27 3 -30 -1 -47 -50 -10 -29 -28 -66 -39 -83 -32 -44 -123 -86 -231 -105
-57 -10 -116 -28 -148 -46 -63 -33 -92 -35 -169 -9 -31 10 -105 24 -164 29
-158 15 -204 44 -215 134 -4 31 -15 53 -41 81 -20 20 -39 37 -43 37 -13 0 -52
-61 -75 -117 l-22 -55 -20 54 c-11 30 -26 91 -32 136 -14 93 -22 95 -76 25
l-29 -38 -7 55 c-7 54 5 233 21 318 7 37 6 42 -10 42 -34 0 -77 54 -142 180
-80 153 -95 215 -78 327 6 43 21 98 34 123 25 52 -3 49 257 30 310 -22 1441 1
1515 31 37 15 83 10 103 -11z m-291 -1392 c-3 -38 -2 -53 3 -38 4 14 8 42 9
63 l1 37 59 0 c32 0 72 -6 87 -13 60 -26 124 -69 117 -79 -3 -6 -1 -8 4 -5 6
4 27 -4 47 -18 20 -14 41 -25 46 -25 5 0 17 -11 26 -25 10 -16 23 -24 33 -21
9 3 36 -6 61 -20 25 -13 35 -22 23 -19 -12 3 -24 2 -27 -3 -3 -5 11 -8 32 -6
43 3 118 -30 124 -55 6 -25 -37 -159 -45 -141 -5 9 -6 6 -3 -7 5 -28 -59 -223
-66 -203 -4 8 -6 2 -6 -15 0 -27 -27 -109 -62 -190 -7 -16 -14 -37 -16 -45 -2
-8 -7 -23 -13 -35 -5 -11 -22 -54 -37 -95 -15 -41 -29 -69 -31 -63 -3 7 1 22
7 35 11 22 11 22 -5 3 -10 -12 -13 -29 -10 -45 7 -31 -69 -211 -79 -189 -3 8
-4 5 -1 -7 3 -11 -1 -34 -9 -50 -8 -16 -21 -47 -31 -69 -9 -22 -22 -53 -30
-70 -7 -16 -30 -72 -51 -122 -22 -51 -44 -93 -51 -93 -6 0 -9 -8 -6 -19 2 -10
-2 -25 -11 -33 -8 -9 -13 -18 -10 -21 3 -3 -11 -40 -31 -83 -93 -203 -94 -204
-118 -204 -12 0 -33 -7 -46 -16 -13 -9 -41 -17 -63 -17 -22 0 -35 -3 -30 -6 6
-3 -25 -20 -69 -37 -43 -17 -79 -28 -79 -24 0 6 57 33 98 45 13 4 22 9 19 11
-2 3 -25 -2 -50 -11 -25 -8 -52 -13 -60 -9 -9 3 -15 0 -14 -8 1 -35 -5 -46
-27 -52 -13 -3 -57 -21 -97 -40 -198 -92 -188 -89 -362 -90 -139 -1 -160 1
-168 16 -15 27 -10 38 15 38 27 0 43 15 27 24 -5 4 -12 2 -16 -4 -3 -5 -11
-10 -16 -10 -6 0 -2 15 9 33 11 17 48 86 82 152 137 262 150 285 135 235 -4
-14 -4 -22 0 -18 4 4 9 22 11 40 3 38 66 158 72 140 2 -7 -2 -19 -8 -28 -7 -8
-10 -17 -7 -20 10 -11 27 36 22 59 -4 15 -1 30 9 40 9 8 16 20 16 26 0 6 25
58 55 116 30 57 55 113 55 125 0 12 4 19 9 16 10 -7 21 17 21 47 0 18 2 19 10
7 8 -12 10 -13 10 -1 0 19 61 145 72 149 4 2 8 9 8 15 0 6 27 68 59 137 86
183 121 258 131 286 6 14 15 22 21 19 6 -5 9 0 7 12 -2 11 2 31 8 44 7 13 20
42 29 63 l18 39 13 -29 c8 -16 12 -21 9 -11 -16 59 -16 68 4 102 12 20 21 41
21 47 0 5 6 24 14 41 71 158 77 178 70 270 -6 79 -5 87 11 87 16 0 17 -7 12
-62z m-550 -170 c-3 -8 -6 -5 -6 6 -1 11 2 17 5 13 3 -3 4 -12 1 -19z m-7
-175 c-11 -17 -11 -17 -6 0 3 10 6 24 7 30 0 9 2 9 5 0 3 -7 0 -20 -6 -30z m7
-110 c-3 -10 -5 -4 -5 12 0 17 2 24 5 18 2 -7 2 -21 0 -30z m0 -155 c-3 -7 -5
-2 -5 12 0 14 2 19 5 13 2 -7 2 -19 0 -25z m-10 -230 c-3 -8 -6 -5 -6 6 -1 11
2 17 5 13 3 -3 4 -12 1 -19z m-20 -130 c-3 -7 -5 -2 -5 12 0 14 2 19 5 13 2
-7 2 -19 0 -25z m40 -30 c-3 -8 -6 -5 -6 6 -1 11 2 17 5 13 3 -3 4 -12 1 -19z
m20 -90 c-3 -8 -6 -5 -6 6 -1 11 2 17 5 13 3 -3 4 -12 1 -19z m-30 -70 c-3 -8
-6 -5 -6 6 -1 11 2 17 5 13 3 -3 4 -12 1 -19z m-1049 -797 c92 -59 201 -169
236 -239 19 -39 46 -131 46 -161 0 -4 -67 -38 -149 -75 l-149 -67 -78 63 c-44
35 -96 74 -117 87 -40 24 -57 54 -57 98 0 16 7 27 20 30 19 5 29 23 12 23 -14
0 -52 76 -52 104 0 19 7 29 25 36 23 9 23 11 10 37 -29 55 -13 83 46 83 29 0
38 4 42 21 9 35 71 20 165 -40z m1752 -237 c36 -18 75 -42 88 -52 l23 -18 -83
-62 c-46 -34 -87 -62 -93 -62 -5 0 -15 39 -21 87 -6 48 -14 103 -19 121 -7 32
-6 34 16 27 13 -4 53 -23 89 -41z m-1180 -38 c0 -8 -7 -16 -15 -20 -13 -4 -14
-2 -5 14 13 23 20 26 20 6z m-1324 -856 c6 0 16 -12 23 -26 9 -21 8 -30 -7
-52 -55 -80 -89 -219 -79 -321 3 -36 2 -47 -3 -31 -5 15 -8 19 -9 8 -1 -25 10
-49 20 -42 8 5 13 -18 12 -53 -1 -7 3 -10 8 -7 5 3 9 -4 9 -15 0 -10 6 -21 13
-24 8 -2 12 -22 11 -58 -1 -38 1 -48 7 -34 7 17 8 15 7 -10 -1 -16 -6 -36 -12
-43 -5 -7 -6 -16 -2 -19 4 -4 11 -1 16 7 6 9 10 10 10 3 0 -6 -4 -15 -10 -18
-5 -3 -10 -11 -10 -16 0 -6 4 -8 9 -5 5 4 12 0 14 -6 4 -9 8 -10 14 -2 4 6 28
22 53 34 25 13 64 36 87 52 26 17 51 27 65 25 13 -2 17 -2 11 0 -18 6 -16 12
10 34 24 20 42 25 32 9 -3 -6 1 -7 10 -3 12 4 13 8 5 13 -8 5 -2 15 19 29 17
12 35 20 40 17 5 -3 8 2 7 12 -1 11 5 16 18 14 10 -2 15 1 12 6 -9 14 56 77
74 73 8 -1 12 1 7 5 -9 10 33 55 45 48 5 -3 8 2 6 12 -2 14 2 18 16 16 10 -2
15 1 12 7 -8 12 23 51 41 51 7 0 13 5 13 10 0 6 6 10 13 10 7 0 44 13 82 29
63 27 75 29 120 20 134 -26 219 -38 310 -44 55 -4 116 -11 135 -15 19 -5 83
-10 142 -11 86 -1 105 -4 101 -15 -3 -8 -11 -14 -18 -14 -7 0 -18 -6 -24 -13
-8 -10 -24 -12 -56 -7 -28 4 -42 3 -37 -2 5 -5 23 -10 40 -10 23 -1 29 -5 25
-17 -3 -12 -2 -12 7 2 6 9 15 17 21 17 13 0 -9 -42 -27 -53 -8 -4 -14 -13 -14
-20 0 -7 -10 -24 -23 -40 -12 -15 -38 -50 -57 -78 -64 -93 -97 -134 -107 -132
-6 1 -10 -5 -9 -15 0 -9 -3 -17 -9 -17 -20 -1 -36 -17 -31 -31 5 -12 -10 -28
-26 -29 -12 0 -22 -15 -10 -15 7 0 2 -11 -10 -25 -12 -14 -26 -25 -32 -25 -5
0 1 11 14 25 13 14 19 25 14 25 -16 0 -46 -42 -48 -66 -1 -19 -5 -22 -28 -17
-24 5 -28 2 -28 -18 1 -21 2 -22 11 -6 10 17 29 24 29 10 0 -5 -42 -52 -93
-107 -88 -92 -95 -98 -117 -86 -12 6 -20 7 -16 2 3 -6 0 -16 -7 -24 -8 -7 -12
-18 -10 -25 3 -9 -64 -73 -181 -171 -15 -12 -32 -20 -38 -16 -6 4 -8 3 -5 -4
4 -5 -13 -23 -38 -39 -25 -15 -45 -31 -45 -35 0 -5 -6 -8 -14 -8 -8 0 -16 -4
-18 -8 -3 -8 -135 -102 -143 -102 -3 0 -26 -13 -53 -30 -31 -19 -56 -28 -72
-24 -18 3 -20 2 -8 -3 31 -14 -152 -104 -252 -124 -154 -32 -258 -69 -311
-111 -9 -8 -26 -31 -37 -52 -22 -41 -38 -56 -59 -56 -22 0 -14 18 10 24 14 3
28 20 39 46 21 52 9 52 -15 0 -20 -42 -37 -52 -38 -22 0 13 -2 12 -9 -5 -22
-56 -41 -4 -35 93 3 49 3 53 -5 24 -7 -28 -8 -24 -4 23 4 39 1 63 -7 73 -17
21 -20 754 -3 775 6 8 12 41 13 73 2 85 18 187 30 199 6 6 11 16 11 21 0 6 -5
4 -10 -4 -8 -11 -9 -7 -4 15 10 51 13 57 26 49 10 -6 10 -4 0 8 -13 16 -4 83
17 133 4 11 21 62 37 113 21 67 33 91 43 87 10 -4 11 -2 3 8 -8 10 -2 31 23
85 38 78 36 77 140 74 29 -1 29 -1 5 7 -14 5 -43 6 -65 3 -22 -2 -37 -2 -34 2
10 11 129 23 189 20 30 -2 60 -3 66 -4z m3310 -40 c3 0 4 9 1 20 -5 19 0 20
91 20 57 0 107 -5 121 -13 26 -13 60 -95 65 -157 2 -19 8 -46 14 -60 14 -32
42 -201 42 -257 0 -24 4 -43 9 -43 9 0 18 -83 25 -245 3 -54 1 -74 -5 -60 -8
17 -9 16 -4 -5 19 -83 25 -177 30 -442 5 -288 5 -296 -13 -291 -11 2 -25 15
-32 29 -7 13 -17 21 -22 18 -4 -3 -20 4 -34 15 -15 12 -23 21 -18 21 5 0 -16
15 -46 33 -45 27 -56 38 -58 64 -2 17 -10 34 -18 37 -17 6 -19 -5 -3 -21 6 -6
10 -16 8 -22 -2 -6 -24 6 -48 27 l-44 38 6 185 c4 102 4 188 1 192 -3 3 -8 50
-10 104 -2 54 -6 113 -10 131 -4 26 -2 32 7 26 9 -5 10 -2 4 12 -5 10 -11 49
-13 87 -2 44 -7 65 -14 61 -6 -4 -9 -3 -6 2 3 5 2 36 -3 69 -8 52 -18 134 -21
173 -1 6 -5 12 -9 12 -4 0 -10 19 -14 43 -4 23 -12 48 -18 55 -7 9 -7 16 0 23
15 15 36 -25 27 -53 -4 -14 -2 -18 5 -14 6 4 11 21 11 38 0 18 7 36 18 44 16
13 16 13 0 14 -10 0 -18 -5 -18 -10 0 -11 -44 -9 -55 2 -10 10 6 99 16 92 5
-3 9 7 10 23 0 27 1 27 9 6 5 -13 12 -23 16 -23z m-1553 -327 c-7 -2 -19 -2
-25 0 -7 3 -2 5 12 5 14 0 19 -2 13 -5z m44 -275 c-3 -7 -5 -2 -5 12 0 14 2
19 5 13 2 -7 2 -19 0 -25z m-567 -98 c0 -5 -5 -10 -11 -10 -5 0 -7 5 -4 10 3
6 8 10 11 10 2 0 4 -4 4 -10z m558 -50 c0 -9 -3 -7 -8 5 -5 11 -8 29 -8 40 0
16 2 15 8 -5 4 -14 8 -32 8 -40z m621 -438 c18 -46 31 -86 27 -89 -3 -3 -55
-8 -116 -11 l-111 -5 5 39 c3 21 10 118 16 214 6 96 13 204 16 240 l6 64 62
-184 c35 -102 77 -222 95 -268z m-1519 122 c0 -3 -7 -12 -15 -20 -16 -17 -18
-14 -9 10 6 15 24 23 24 10z m897 -176 c-3 -7 -5 -2 -5 12 0 14 2 19 5 13 2
-7 2 -19 0 -25z m-30 -115 c-3 -10 -5 -4 -5 12 0 17 2 24 5 18 2 -7 2 -21 0
-30z m20 -170 c-2 -16 -4 -3 -4 27 0 30 2 43 4 28 2 -16 2 -40 0 -55z m-70
-115 c-3 -7 -5 -2 -5 12 0 14 2 19 5 13 2 -7 2 -19 0 -25z m-417 -152 c247
-32 500 -46 805 -46 209 0 537 20 586 35 12 4 28 -13 59 -62 164 -261 328
-492 560 -783 50 -63 112 -141 136 -172 l45 -57 9 -138 c42 -590 85 -974 185
-1648 134 -908 168 -1161 205 -1540 24 -240 47 -367 91 -504 42 -129 36 -101
148 -661 124 -616 127 -639 112 -690 -12 -42 -64 -90 -135 -125 -21 -11 -40
-25 -43 -32 -2 -6 9 -97 26 -201 38 -234 39 -257 7 -277 -31 -20 -216 -61
-338 -74 -135 -15 -290 -14 -311 2 -17 13 -47 125 -93 343 l-27 131 -72 12
c-79 13 -108 29 -130 70 -12 24 -46 195 -69 346 -53 352 -87 593 -117 846 -21
168 -22 194 -10 285 l13 99 -45 107 c-92 217 -155 430 -172 583 -4 38 -26 106
-60 185 -29 69 -73 177 -98 240 -25 63 -57 146 -73 185 -98 249 -221 682 -265
935 -17 94 -30 137 -52 175 -90 152 -258 513 -298 641 l-22 72 -58 6 c-65 8
-106 3 -190 -21 l-56 -15 -17 -77 c-21 -96 -72 -221 -136 -333 -84 -145 -130
-272 -145 -400 l-7 -58 -187 0 c-362 0 -718 59 -1074 176 -76 26 -141 52 -143
58 -3 7 2 104 11 217 9 112 19 333 22 491 l6 287 181 179 c500 496 760 810
961 1160 35 62 51 81 64 77 9 -2 104 -16 211 -29z m-1740 -86 c0 -5 -5 -10
-11 -10 -5 0 -7 5 -4 10 3 6 8 10 11 10 2 0 4 -4 4 -10z m296 -2740 c109 -38
347 -100 478 -125 232 -44 377 -57 617 -58 151 -1 226 -5 223 -12 -2 -5 -13
-50 -25 -100 -72 -307 -211 -723 -344 -1032 -48 -112 -53 -131 -60 -225 -9
-143 -31 -303 -58 -438 -22 -112 -23 -116 -6 -170 22 -68 23 -141 4 -239 -67
-351 -104 -527 -151 -721 -94 -390 -111 -430 -186 -444 l-34 -6 -38 -227 c-20
-125 -41 -232 -47 -238 -6 -6 -76 -10 -177 -9 -137 1 -181 5 -245 22 -98 27
-189 67 -216 96 l-21 23 20 176 c11 97 20 183 20 189 0 7 -31 26 -69 41 -110
45 -135 65 -139 114 -4 57 120 1069 203 1648 47 334 57 430 80 830 19 325 30
434 76 763 13 89 26 162 30 162 3 0 32 -9 65 -20z m-578 -5820 c122 -14 270
-52 335 -88 72 -39 138 -107 175 -181 18 -35 32 -70 32 -77 0 -19 -137 -83
-205 -95 -33 -6 -87 -9 -120 -6 -33 3 -90 0 -127 -5 -56 -9 -74 -8 -115 7 -26
9 -79 20 -118 24 -38 4 -80 13 -92 19 -12 7 -43 12 -69 12 -74 0 -198 46 -234
86 -16 19 -30 43 -30 53 0 18 108 160 173 229 l31 32 133 0 c74 0 177 -5 231
-10z m5515 -123 c68 -70 144 -163 159 -195 34 -73 15 -152 -36 -152 -12 0 -31
-6 -42 -14 -11 -8 -49 -17 -84 -20 -36 -3 -89 -8 -118 -12 -29 -3 -66 -1 -84
5 -17 6 -36 7 -42 2 -22 -17 -80 -21 -145 -9 -36 6 -109 11 -161 9 -58 -1
-124 4 -169 14 -79 16 -183 59 -202 81 -24 29 113 174 210 223 51 26 155 48
316 65 185 21 206 22 298 24 69 2 80 -1 100 -21z"/>
<path d="M19147 16885 c-26 -6 -56 -20 -66 -29 -44 -40 -153 -257 -137 -273 3
-4 35 -1 69 6 49 10 73 10 110 0 40 -10 54 -9 90 5 75 28 103 121 52 171 -51
52 -145 16 -145 -55 0 -42 16 -70 40 -70 19 0 19 1 3 34 -15 32 -15 37 1 60
21 33 59 34 80 4 23 -32 20 -61 -9 -92 -19 -21 -33 -26 -70 -26 -38 0 -52 5
-77 30 -28 29 -30 35 -26 86 7 78 44 115 121 122 38 3 65 -1 87 -12 32 -16 50
-14 50 5 0 12 -51 34 -95 42 -16 2 -51 -1 -78 -8z m-109 -257 c-7 -4 -23 -8
-36 -8 l-22 0 21 42 21 42 14 -34 c12 -27 12 -35 2 -42z"/>
<path d="M19930 15095 c7 -8 20 -14 29 -14 13 1 13 2 -1 6 -10 2 -18 9 -18 14
0 5 -5 9 -11 9 -8 0 -8 -5 1 -15z"/>
<path d="M19933 15053 c9 -9 19 -14 23 -11 10 10 -6 28 -24 28 -15 0 -15 -1 1
-17z"/>
<path d="M19985 15050 c3 -5 11 -10 16 -10 6 0 7 5 4 10 -3 6 -11 10 -16 10
-6 0 -7 -4 -4 -10z"/>
<path d="M20027 15049 c7 -7 15 -10 18 -7 3 3 -2 9 -12 12 -14 6 -15 5 -6 -5z"/>
<path d="M19821 14993 c0 -18 -5 -33 -10 -33 -5 0 -11 -11 -13 -25 -7 -34 -2
-31 17 9 9 19 15 45 12 58 -3 17 -5 15 -6 -9z"/>
<path d="M20087 15003 c-12 -12 -7 -22 8 -17 8 4 15 10 15 15 0 11 -14 12 -23
2z"/>
<path d="M20111 14981 c-10 -7 -8 -9 10 -8 13 0 33 -3 44 -7 13 -5 11 -2 -5 8
-30 18 -31 18 -49 7z"/>
<path d="M20240 14924 c0 -7 27 -34 34 -34 4 0 1 9 -6 20 -12 19 -28 27 -28
14z"/>
<path d="M20208 14883 c7 -3 16 -2 19 1 4 3 -2 6 -13 5 -11 0 -14 -3 -6 -6z"/>
<path d="M20407 14831 c-2 -10 1 -25 8 -35 11 -15 13 -15 19 0 10 25 7 41 -8
47 -8 3 -16 -2 -19 -12z m20 -23 c-3 -8 -6 -5 -6 6 -1 11 2 17 5 13 3 -3 4
-12 1 -19z"/>
<path d="M19747 14809 c-3 -12 -2 -31 2 -42 6 -17 8 -12 8 21 0 47 -2 52 -10
21z"/>
<path d="M19731 14760 c0 -8 4 -22 9 -30 12 -18 12 -2 0 25 -6 13 -9 15 -9 5z"/>
<path d="M20411 14754 c0 -11 3 -14 6 -6 3 7 2 16 -1 19 -3 4 -6 -2 -5 -13z"/>
<path d="M19680 14659 c0 -5 5 -7 10 -4 6 3 10 8 10 11 0 2 -4 4 -10 4 -5 0
-10 -5 -10 -11z"/>
<path d="M20320 14601 c0 -6 4 -13 10 -16 6 -3 7 1 4 9 -7 18 -14 21 -14 7z"/>
<path d="M20356 14574 c-4 -14 -5 -29 -2 -31 3 -3 8 7 12 21 3 15 4 29 1 32
-2 3 -8 -7 -11 -22z"/>
<path d="M19640 14559 c0 -5 5 -7 10 -4 6 3 10 8 10 11 0 2 -4 4 -10 4 -5 0
-10 -5 -10 -11z"/>
<path d="M20331 14563 c-1 -6 -4 -20 -7 -30 -5 -17 -5 -17 6 0 6 10 9 23 6 30
-3 9 -5 9 -5 0z"/>
<path d="M19664 14515 c-3 -8 -4 -20 -2 -27 3 -7 7 -1 10 15 6 29 1 36 -8 12z"/>
<path d="M19610 14490 c-13 -8 -13 -10 2 -10 9 0 20 5 23 10 8 13 -5 13 -25 0z"/>
<path d="M19578 14422 c-3 -11 0 -19 7 -19 7 0 10 8 7 19 -2 10 -6 18 -7 18
-1 0 -5 -8 -7 -18z"/>
<path d="M20252 14370 c0 -19 2 -27 5 -17 2 9 2 25 0 35 -3 9 -5 1 -5 -18z"/>
<path d="M20280 14385 c0 -8 2 -15 4 -15 2 0 6 7 10 15 3 8 1 15 -4 15 -6 0
-10 -7 -10 -15z"/>
<path d="M19550 14360 c-7 -17 -10 -33 -8 -36 3 -2 11 9 18 26 7 17 10 33 8
36 -3 2 -11 -9 -18 -26z"/>
<path d="M19573 14345 c-3 -9 -3 -18 -1 -21 3 -3 8 4 11 16 6 23 -1 27 -10 5z"/>
<path d="M20241 14284 c0 -11 3 -14 6 -6 3 7 2 16 -1 19 -3 4 -6 -2 -5 -13z"/>
<path d="M19480 14196 c-15 -39 -12 -46 6 -13 9 16 13 31 10 34 -3 3 -10 -6
-16 -21z"/>
<path d="M20201 14148 c-1 -10 -5 -18 -11 -18 -5 0 -10 -8 -10 -17 0 -14 3
-13 16 5 8 12 13 28 11 35 -3 7 -6 5 -6 -5z"/>
<path d="M19421 14085 c-9 -26 -9 -39 -1 -52 9 -15 10 -15 4 6 -3 13 -2 21 2
18 5 -3 10 10 11 29 1 19 1 34 -1 34 -1 0 -8 -16 -15 -35z"/>
<path d="M19390 14021 c0 -6 4 -13 10 -16 6 -3 7 1 4 9 -7 18 -14 21 -14 7z"/>
<path d="M20130 13990 c0 -5 4 -10 9 -10 6 0 13 5 16 10 3 6 -1 10 -9 10 -9 0
-16 -4 -16 -10z"/>
<path d="M20088 13975 c-3 -3 -2 -20 3 -37 5 -17 6 -43 3 -57 l-6 -26 16 27
c8 16 18 32 21 38 3 5 0 7 -9 4 -11 -4 -15 3 -18 26 -2 18 -6 29 -10 25z"/>
<path d="M20121 13954 c0 -11 3 -14 6 -6 3 7 2 16 -1 19 -3 4 -6 -2 -5 -13z"/>
<path d="M19316 13865 c-10 -26 -6 -32 6 -10 11 19 11 19 20 0 7 -19 8 -19 5
-1 -3 25 -23 32 -31 11z"/>
<path d="M19240 13711 c-12 -24 -13 -34 -1 -27 9 6 22 46 15 46 -2 0 -8 -9
-14 -19z"/>
<path d="M20020 13709 c-6 -11 -10 -25 -8 -30 2 -5 8 4 15 21 13 34 9 40 -7 9z"/>
<path d="M19950 13590 c12 -8 13 -13 3 -29 -7 -11 -9 -22 -4 -25 5 -3 11 2 14
12 2 9 8 24 11 32 5 11 0 16 -16 17 -18 2 -19 0 -8 -7z"/>
<path d="M19177 13555 c6 -28 5 -29 -12 -15 -16 13 -18 13 -13 0 2 -8 13 -15
24 -16 14 -1 19 6 20 28 1 17 -2 24 -6 18 -6 -9 -9 -9 -13 1 -4 8 -3 1 0 -16z"/>
<path d="M19920 13570 c0 -5 5 -10 11 -10 5 0 7 5 4 10 -3 6 -8 10 -11 10 -2
0 -4 -4 -4 -10z"/>
<path d="M19921 13533 c0 -4 4 -17 8 -27 6 -15 9 -16 13 -5 3 8 -1 20 -8 27
-8 7 -14 9 -13 5z"/>
<path d="M19876 13405 c4 -8 8 -15 10 -15 2 0 4 7 4 15 0 8 -4 15 -10 15 -5 0
-7 -7 -4 -15z"/>
<path d="M19106 13393 c-7 -23 -22 -30 -28 -14 -1 5 -8 3 -15 -4 -9 -10 -6
-12 13 -12 27 0 48 20 42 39 -3 8 -8 4 -12 -9z"/>
<path d="M19853 13355 c0 -27 2 -43 5 -35 3 8 10 18 16 23 8 5 7 10 -2 16 -8
4 -13 11 -12 15 1 4 -1 12 -3 19 -2 6 -4 -10 -4 -38z"/>
<path d="M19841 13284 c0 -11 3 -14 6 -6 3 7 2 16 -1 19 -3 4 -6 -2 -5 -13z"/>
<path d="M19778 13273 c7 -3 16 -2 19 1 4 3 -2 6 -13 5 -11 0 -14 -3 -6 -6z"/>
<path d="M19010 13261 c0 -7 5 -21 10 -32 12 -21 1 -26 -17 -8 -9 9 -12 7 -10
-8 1 -15 7 -18 24 -15 19 4 22 9 17 31 -7 29 -24 52 -24 32z"/>
<path d="M19761 13244 c0 -11 3 -14 6 -6 3 7 2 16 -1 19 -3 4 -6 -2 -5 -13z"/>
<path d="M19802 13248 c-7 -7 -12 -24 -12 -40 0 -20 -4 -26 -15 -22 -9 4 -15
0 -15 -8 0 -31 30 -13 40 23 6 21 18 43 28 48 14 9 14 10 2 11 -9 0 -21 -5
-28 -12z"/>
<path d="M18945 13151 c-3 -5 -1 -12 5 -16 5 -3 10 1 10 9 0 18 -6 21 -15 7z"/>
<path d="M19750 13120 c-23 -7 -23 -8 -3 -9 12 -1 25 4 28 9 3 6 5 10 3 9 -2
-1 -14 -5 -28 -9z"/>
<path d="M18920 13105 c0 -8 2 -15 4 -15 2 0 6 7 10 15 3 8 1 15 -4 15 -6 0
-10 -7 -10 -15z"/>
<path d="M18946 13094 c-4 -14 -5 -28 -3 -31 3 -2 8 8 11 23 4 14 5 28 3 31
-3 2 -8 -8 -11 -23z"/>
<path d="M19680 13099 c0 -5 8 -9 18 -10 14 0 14 -2 -3 -9 -25 -11 2 -12 29
-1 18 7 16 9 -12 19 -19 6 -32 7 -32 1z"/>
<path d="M18906 13071 c-3 -5 1 -14 8 -20 12 -10 13 -8 9 8 -6 23 -9 25 -17
12z"/>
<path d="M19470 13030 c-13 -8 -13 -10 2 -10 9 0 20 5 23 10 8 13 -5 13 -25 0z"/>
<path d="M18840 12930 c0 -11 5 -20 10 -20 6 0 10 9 10 20 0 11 -4 20 -10 20
-5 0 -10 -9 -10 -20z"/>
<path d="M19315 12940 c19 -8 19 -8 -5 -18 -14 -6 -20 -11 -14 -11 10 -1 74
28 74 32 0 1 -17 3 -38 4 -27 1 -32 -1 -17 -7z"/>
<path d="M19175 12870 c-7 -12 12 -12 40 0 18 8 17 9 -7 9 -15 1 -30 -3 -33
-9z"/>
<path d="M19095 12860 c3 -5 10 -10 16 -10 5 0 9 5 9 10 0 6 -7 10 -16 10 -8
0 -12 -4 -9 -10z"/>
<path d="M18818 12853 c12 -2 32 -2 45 0 12 2 2 4 -23 4 -25 0 -35 -2 -22 -4z"/>
<path d="M18958 12853 c23 -2 61 -2 85 0 23 2 4 4 -43 4 -47 0 -66 -2 -42 -4z"/>
<path d="M19125 12850 c-3 -5 -21 -11 -38 -11 -30 -2 -30 -2 -5 -6 15 -2 40 3
55 11 19 10 22 15 11 16 -9 0 -20 -4 -23 -10z"/>
<path d="M18808 12833 c6 -2 18 -2 25 0 6 3 1 5 -13 5 -14 0 -19 -2 -12 -5z"/>
<path d="M18868 12833 c7 -3 16 -2 19 1 4 3 -2 6 -13 5 -11 0 -14 -3 -6 -6z"/>
<path d="M18943 12833 c15 -2 39 -2 55 0 15 2 2 4 -28 4 -30 0 -43 -2 -27 -4z"/>
<path d="M17378 11953 c12 -2 32 -2 45 0 12 2 2 4 -23 4 -25 0 -35 -2 -22 -4z"/>
<path d="M17450 11952 c0 -7 -17 -12 -42 -13 -24 -1 -54 -5 -68 -9 -15 -5 0
-6 38 -3 52 5 62 3 62 -10 0 -9 4 -18 9 -21 5 -4 7 4 3 16 -4 17 -2 20 13 14
16 -6 16 -4 4 11 -7 10 -15 20 -16 22 -2 2 -3 -1 -3 -7z"/>
<path d="M17187 11900 c-6 -16 -15 -30 -19 -30 -4 0 -8 -4 -8 -10 0 -24 18 -7
33 30 8 22 13 40 10 40 -2 0 -10 -13 -16 -30z"/>
<path d="M17150 11821 c-12 -24 -13 -31 -1 -31 5 0 11 11 13 25 6 30 2 32 -12
6z"/>
<path d="M17183 11821 c0 -11 5 -17 9 -15 11 7 10 34 -1 34 -6 0 -9 -9 -8 -19z"/>
<path d="M17400 11825 c0 -8 2 -15 4 -15 2 0 6 7 10 15 3 8 1 15 -4 15 -6 0
-10 -7 -10 -15z"/>
<path d="M17372 11780 c0 -14 2 -19 5 -12 2 6 2 18 0 25 -3 6 -5 1 -5 -13z"/>
<path d="M17390 11751 c0 -7 -4 -9 -10 -6 -5 3 -10 -3 -10 -14 0 -31 17 -34
23 -3 3 15 3 29 1 31 -2 2 -4 -1 -4 -8z"/>
<path d="M17107 11713 c-2 -10 -8 -27 -12 -38 -6 -17 -5 -18 5 -5 10 13 11 11
7 -7 -3 -13 -1 -23 3 -23 5 0 8 20 8 45 -1 49 -3 54 -11 28z"/>
<path d="M18200 11705 c-18 -10 -20 -14 -8 -15 9 0 25 -3 35 -6 15 -5 15 -4 3
5 -13 9 -13 11 0 15 8 3 29 7 45 9 24 3 22 4 -10 5 -22 1 -51 -5 -65 -13z"/>
<path d="M18298 11693 c7 -3 16 -2 19 1 4 3 -2 6 -13 5 -11 0 -14 -3 -6 -6z"/>
<path d="M18380 11690 c25 -8 107 -13 99 -6 -2 2 -31 6 -64 9 -37 3 -51 2 -35
-3z"/>
<path d="M17086 11630 c3 -14 7 -36 8 -50 1 -14 7 -33 12 -42 7 -12 9 -5 9 27
0 24 -3 41 -7 39 -3 -2 -11 8 -17 23 -10 25 -11 25 -5 3z"/>
<path d="M17360 11629 c0 -11 5 -17 10 -14 6 3 10 13 10 21 0 8 -4 14 -10 14
-5 0 -10 -9 -10 -21z"/>
<path d="M18060 11640 c-13 -8 -12 -10 3 -10 9 0 17 5 17 10 0 12 -1 12 -20 0z"/>
<path d="M18818 11643 c23 -2 59 -2 80 0 20 2 1 4 -43 4 -44 0 -61 -2 -37 -4z"/>
<path d="M18755 11619 c22 -4 49 -8 60 -8 l20 0 -20 9 c-11 5 -38 8 -60 8
l-40 0 40 -9z"/>
<path d="M18893 11623 c9 -2 23 -2 30 0 6 3 -1 5 -18 5 -16 0 -22 -2 -12 -5z"/>
<path d="M18047 11609 c7 -7 15 -10 18 -7 3 3 -2 9 -12 12 -14 6 -15 5 -6 -5z"/>
<path d="M18728 11603 c7 -3 16 -2 19 1 4 3 -2 6 -13 5 -11 0 -14 -3 -6 -6z"/>
<path d="M17063 11571 c-6 -18 -7 -31 -2 -31 12 0 22 24 17 45 -2 12 -7 7 -15
-14z"/>
<path d="M17365 11570 c-4 -17 -5 -34 -2 -36 3 -3 8 9 12 26 4 17 5 34 2 36
-3 3 -8 -9 -12 -26z"/>
<path d="M17980 11551 c0 -5 5 -13 10 -16 6 -3 10 -2 10 4 0 5 -4 13 -10 16
-5 3 -10 2 -10 -4z"/>
<path d="M18842 11508 c-7 -7 -12 -21 -12 -31 0 -17 2 -17 20 6 11 14 20 28
20 31 0 10 -15 7 -28 -6z"/>
<path d="M17371 11485 c0 -11 4 -27 9 -35 9 -13 10 -13 9 0 0 8 -4 24 -9 35
l-9 20 0 -20z"/>
<path d="M17896 11475 c-11 -8 -17 -17 -14 -20 2 -3 13 4 23 15 21 23 18 25
-9 5z"/>
<path d="M18810 11435 c-7 -9 -11 -17 -9 -20 3 -2 10 5 17 15 14 24 10 26 -8
5z"/>
<path d="M17027 11385 c3 -22 7 -42 9 -44 8 -9 2 45 -6 64 -7 14 -8 8 -3 -20z"/>
<path d="M17790 11381 c0 -5 7 -11 14 -14 10 -4 13 -1 9 9 -6 15 -23 19 -23 5z"/>
<path d="M18738 11353 c6 -3 12 -9 12 -15 0 -6 -7 -8 -14 -5 -10 4 -13 1 -9
-9 5 -13 8 -13 24 2 25 22 24 30 -3 31 -13 0 -17 -1 -10 -4z"/>
<path d="M17010 11321 c0 -6 5 -13 10 -16 6 -3 10 1 10 9 0 9 -4 16 -10 16 -5
0 -10 -4 -10 -9z"/>
<path d="M17666 11294 c-11 -8 -16 -14 -10 -14 13 0 39 18 34 24 -3 2 -14 -2
-24 -10z"/>
<path d="M17005 11265 c12 -80 16 -90 26 -74 5 7 9 19 9 24 0 6 -5 3 -10 -5
-7 -11 -10 -5 -10 25 0 22 -5 47 -11 55 -7 11 -8 4 -4 -25z"/>
<path d="M18643 11252 c-1 -22 0 -24 9 -8 6 10 6 22 2 26 -5 5 -10 -3 -11 -18z"/>
<path d="M16992 11200 c0 -19 2 -27 5 -17 2 9 2 25 0 35 -3 9 -5 1 -5 -18z"/>
<path d="M18575 11189 c-12 -18 3 -22 20 -5 14 14 14 16 1 16 -8 0 -18 -5 -21
-11z"/>
<path d="M17012 11145 c0 -16 2 -22 5 -12 2 9 2 23 0 30 -3 6 -5 -1 -5 -18z"/>
<path d="M17031 11104 c0 -11 3 -14 6 -6 3 7 2 16 -1 19 -3 4 -6 -2 -5 -13z"/>
<path d="M18463 11033 c9 -2 17 -8 17 -13 0 -5 -8 -11 -17 -13 -17 -4 -17 -5
-1 -6 10 0 22 7 27 17 8 15 5 18 -17 19 -15 0 -19 -1 -9 -4z"/>
<path d="M18420 11020 c-8 -5 -11 -12 -7 -16 4 -4 13 -2 19 4 15 15 7 24 -12
12z"/>
<path d="M18431 10976 c-1 -10 -6 -16 -13 -13 -7 2 -22 1 -33 -4 -17 -6 -17
-8 -2 -8 19 -1 24 -21 5 -21 -6 0 -8 -3 -5 -7 10 -10 60 44 54 59 -3 8 -6 6
-6 -6z"/>
<path d="M18333 10943 c9 -9 20 -13 24 -9 4 4 1 11 -7 16 -25 16 -35 11 -17
-7z"/>
<path d="M18356 10911 c-4 -7 -5 -15 -2 -18 9 -9 19 4 14 18 -4 11 -6 11 -12
0z"/>
<path d="M18254 10865 c8 -8 21 -15 28 -15 8 1 6 6 -6 15 -26 20 -42 19 -22 0z"/>
<path d="M18263 10810 c-11 -16 -10 -18 1 -14 15 6 30 34 18 34 -4 0 -13 -9
-19 -20z"/>
<path d="M18170 10735 c0 -8 -12 -21 -27 -29 -16 -8 -24 -15 -20 -16 17 0 67
35 67 47 0 7 -4 13 -10 13 -5 0 -10 -7 -10 -15z"/>
<path d="M18086 10711 c-8 -12 3 -41 15 -41 13 0 11 18 -3 23 -10 4 -9 8 2 16
9 7 10 11 3 11 -6 0 -14 -4 -17 -9z"/>
<path d="M18038 10633 c7 -3 16 -2 19 1 4 3 -2 6 -13 5 -11 0 -14 -3 -6 -6z"/>
<path d="M17890 10530 c-13 -8 -12 -10 3 -10 9 0 17 5 17 10 0 12 -1 12 -20 0z"/>
<path d="M17766 10471 c-4 -5 3 -7 14 -4 23 6 26 13 6 13 -8 0 -17 -4 -20 -9z"/>
<path d="M17769 10443 c-13 -16 -12 -17 4 -4 16 13 21 21 13 21 -2 0 -10 -8
-17 -17z"/>
<path d="M17483 10313 c-13 -2 -23 -8 -23 -12 0 -5 -19 -11 -41 -15 -23 -4
-39 -9 -36 -12 9 -9 110 17 125 33 7 7 10 12 5 12 -4 -1 -18 -4 -30 -6z"/>
<path d="M17021 10258 c-1 -18 -16 -24 -24 -10 -2 4 -2 1 0 -6 1 -8 3 -21 3
-30 1 -11 6 -7 16 11 8 16 13 34 10 40 -2 7 -5 4 -5 -5z"/>
<path d="M17150 10230 c-13 -8 -13 -10 2 -10 9 0 20 5 23 10 8 13 -5 13 -25 0z"/>
<path d="M17195 10223 c-19 -11 -25 -18 -16 -21 7 -2 16 0 20 6 4 6 18 15 31
21 14 5 18 10 10 10 -8 0 -28 -7 -45 -16z"/>
<path d="M17127 10194 c6 -16 19 -18 27 -5 3 5 -3 11 -13 14 -14 3 -18 1 -14
-9z"/>
<path d="M17010 10151 c-6 -16 -10 -40 -7 -53 3 -17 5 -13 6 12 1 27 4 31 11
20 7 -11 10 -7 10 18 0 40 -4 40 -20 3z"/>
<path d="M17045 10139 c-4 -11 -4 -23 -1 -26 3 -4 6 1 6 10 0 10 5 17 10 17 6
0 10 5 10 10 0 18 -19 10 -25 -11z"/>
<path d="M20780 11949 c0 -5 5 -7 10 -4 6 3 10 8 10 11 0 2 -4 4 -10 4 -5 0
-10 -5 -10 -11z"/>
<path d="M20950 11940 c-13 -8 -12 -10 3 -10 9 0 17 5 17 10 0 12 -1 12 -20 0z"/>
<path d="M20980 11928 c1 -21 31 -83 41 -86 10 -2 11 -1 2 5 -6 4 -14 25 -18
46 -4 20 -11 37 -16 37 -5 0 -9 -1 -9 -2z"/>
<path d="M20971 11888 c0 -9 -4 -25 -7 -35 -5 -17 -5 -17 6 0 6 10 9 25 7 35
-4 15 -5 15 -6 0z"/>
<path d="M20777 11709 c4 -13 8 -18 11 -10 2 7 -1 18 -6 23 -8 8 -9 4 -5 -13z"/>
<path d="M20781 11673 c0 -4 4 -17 9 -28 8 -19 9 -19 9 2 1 12 -3 25 -9 28 -5
3 -10 3 -9 -2z"/>
<path d="M21055 11630 c3 -20 2 -28 -2 -18 -5 10 -8 -15 -8 -60 -1 -42 2 -66
6 -52 l6 25 5 -25 c2 -14 3 4 2 40 -3 64 -3 64 7 22 15 -64 21 -46 8 24 -13
64 -33 101 -24 44z"/>
<path d="M20792 11565 c0 -16 2 -22 5 -12 2 9 2 23 0 30 -3 6 -5 -1 -5 -18z"/>
<path d="M20832 11225 c0 -16 2 -22 5 -12 2 9 2 23 0 30 -3 6 -5 -1 -5 -18z"/>
<path d="M20871 11214 c0 -11 3 -14 6 -6 3 7 2 16 -1 19 -3 4 -6 -2 -5 -13z"/>
<path d="M20832 11145 c0 -16 2 -22 5 -12 2 9 2 23 0 30 -3 6 -5 -1 -5 -18z"/>
<path d="M21121 11024 c0 -16 4 -38 9 -49 6 -13 7 -5 3 25 -7 53 -13 66 -12
24z"/>
<path d="M20853 11000 c0 -25 2 -35 4 -22 2 12 2 32 0 45 -2 12 -4 2 -4 -23z"/>
<path d="M20872 11010 c0 -19 2 -27 5 -17 2 9 2 25 0 35 -3 9 -5 1 -5 -18z"/>
<path d="M20873 10743 c-1 -107 1 -130 12 -120 7 7 9 14 4 17 -4 3 -10 57 -12
120 l-3 115 -1 -132z"/>
<path d="M21130 10781 c0 -11 5 -23 10 -26 6 -4 10 5 10 19 0 14 -4 26 -10 26
-5 0 -10 -9 -10 -19z"/>
<path d="M21133 10640 c0 -47 2 -66 4 -42 2 23 2 61 0 85 -2 23 -4 4 -4 -43z"/>
<path d="M20937 10629 c7 -7 15 -10 18 -7 3 3 -2 9 -12 12 -14 6 -15 5 -6 -5z"/>
<path d="M20950 10556 c0 -2 9 -6 20 -9 11 -3 18 -1 14 4 -5 9 -34 13 -34 5z"/>
<path d="M21000 10530 c0 -5 7 -10 16 -10 8 0 12 5 9 10 -3 6 -10 10 -16 10
-5 0 -9 -4 -9 -10z"/>
<path d="M21076 10471 c-3 -5 5 -8 18 -7 13 0 22 4 19 9 -6 10 -31 9 -37 -2z"/>
</g>
</svg>
